<svg width="330" height="331" viewBox="0 0 330 331" fill="none" xmlns="http://www.w3.org/2000/svg">
<path d="M86.5584 59.6585C88.7777 52.5302 95.8709 49.1377 100.071 43.8584C107.671 34.3068 121.082 27.9823 131.187 22.157C146.144 13.5342 164.266 15.1135 180.617 15.1135C196.903 15.1135 212.005 16.4526 228.09 18.5401C247.912 21.1125 259.914 34.5276 273.786 49.3789C286.248 62.7216 294.568 75.8727 300.101 93.9239C311.774 132.011 321.371 169.629 309.702 209.379C299.147 245.334 271.082 265.72 244.448 287.333C233.866 295.92 222.814 304.455 210.665 310.367C199.296 315.9 186.587 314.936 174.393 314.936C159.783 314.936 145.661 314.324 131.365 310.748C112.791 306.101 92.0438 302.168 75.1789 292.282C49.575 277.274 27.8939 246.303 20.4154 216.518C12.6112 185.436 13.378 153.499 21.8378 122.669C27.603 101.659 40.0274 85.3492 54.6426 70.6044C62.1552 63.0251 68.5531 53.5766 76.957 47.0945C85.7301 40.3276 95.6933 37.3634 105.761 33.9595" stroke="black" stroke-width="30" stroke-linecap="round"/>
<path d="M127.389 138.427C127.389 121.845 141.12 122.001 152.329 122.941C164.719 123.98 176.138 129.338 188.136 132.579C203.781 136.806 214.707 163.355 218.42 180.445C221.182 193.155 223.28 208.585 210.404 212.499C194.32 217.388 176.333 221.296 159.722 222.137C144.447 222.911 129.24 209.099 121.956 193.331C117.623 183.952 110.295 166.619 113.138 155.321C115.421 146.246 125.968 143.29 132.199 140.376" stroke="#EDAA3E" stroke-width="30" stroke-linecap="round"/>
</svg>
