<svg width="1088" height="200" viewBox="0 0 1088 200" fill="none" xmlns="http://www.w3.org/2000/svg">
<path d="M167 200L6.3777e-06 200V50L167 200Z" fill="black"/>
<path d="M4 3.73051e-05L171 3.20315e-06V150L4 3.73051e-05Z" fill="black"/>
<path d="M290.4 174C280 174 270.4 172.2 261.6 168.6C252.8 165 245.133 159.867 238.6 153.2C232.2 146.533 227.2 138.667 223.6 129.6C220.133 120.4 218.4 110.333 218.4 99.4C218.4 84.8667 221.467 72.1333 227.6 61.2C233.733 50.1333 242.2 41.5333 253 35.4C263.933 29.1333 276.333 26 290.2 26C304.333 26 316.8 29.1333 327.6 35.4C338.533 41.5333 347.067 50.1333 353.2 61.2C359.333 72.2667 362.4 85.0667 362.4 99.6C362.4 110.533 360.6 120.533 357 129.6C353.533 138.667 348.533 146.533 342 153.2C335.6 159.867 328 165 319.2 168.6C310.4 172.2 300.8 174 290.4 174ZM290.2 152.8C299.267 152.8 307.2 150.533 314 146C320.933 141.467 326.333 135.2 330.2 127.2C334.067 119.067 336 109.733 336 99.2C336 88.8 334.067 79.7333 330.2 72C326.467 64.1333 321.133 58.0667 314.2 53.8C307.4 49.4 299.4 47.2 290.2 47.2C281.133 47.2 273.133 49.4 266.2 53.8C259.4 58.0667 254.133 64.0667 250.4 71.8C246.667 79.5333 244.8 88.6667 244.8 99.2C244.8 109.867 246.667 119.2 250.4 127.2C254.267 135.2 259.6 141.467 266.4 146C273.333 150.533 281.267 152.8 290.2 152.8ZM382.189 172V28H414.389L484.589 153.2L477.189 155V28H502.389V172H470.189L399.989 46.8L407.389 45V172H382.189ZM596.111 174C580.911 174 567.778 171 556.711 165C545.644 158.867 537.111 150.333 531.111 139.4C525.111 128.333 522.111 115.4 522.111 100.6C522.111 85.8 525.111 72.8667 531.111 61.8C537.111 50.6 545.444 41.8667 556.111 35.6C566.778 29.2 579.178 26 593.311 26C604.778 26 615.044 28.1333 624.111 32.4C633.311 36.5333 640.711 42.2667 646.311 49.6C652.044 56.8 655.511 65.2 656.711 74.8H630.711C629.378 66.2667 625.378 59.5333 618.711 54.6C612.044 49.6667 603.711 47.2 593.711 47.2C584.644 47.2 576.711 49.3333 569.911 53.6C563.111 57.8667 557.844 63.9333 554.111 71.8C550.378 79.6667 548.511 89.0667 548.511 100C548.511 111.2 550.378 120.8 554.111 128.8C557.978 136.667 563.511 142.667 570.711 146.8C578.044 150.933 586.978 153 597.511 153C605.644 153 612.644 152 618.511 150C624.378 147.867 629.111 144.733 632.711 140.6L657.711 150.4C650.111 158.133 641.311 164 631.311 168C621.311 172 609.578 174 596.111 174ZM631.711 150.4V108.4L637.911 114.6H597.311V94.2H657.711V150.4H631.711ZM667.967 172L720.967 28H743.367L693.567 172H667.967ZM776.567 172L726.967 28H750.567L803.367 172H776.567ZM695.367 115.4H774.167V136.2H695.367V115.4ZM821.447 172V28H847.447V172H821.447ZM840.247 97.2L908.447 28H943.447L872.447 97.2H840.247ZM911.647 172L839.847 97.2H872.447L947.447 172H911.647ZM1017.14 174C997.671 174 982.938 168.467 972.938 157.4C962.938 146.333 957.938 130.467 957.938 109.8V28H983.938V113.6C983.938 126.8 986.871 136.667 992.738 143.2C998.604 149.6 1006.8 152.8 1017.34 152.8C1027.87 152.8 1036.07 149.6 1041.94 143.2C1047.8 136.667 1050.74 126.867 1050.74 113.8V28H1076.74V110C1076.74 130.533 1071.67 146.333 1061.54 157.4C1051.54 168.467 1036.74 174 1017.14 174Z" fill="black"/>
</svg>
