<svg width="859" height="148" viewBox="0 0 859 148" fill="none" xmlns="http://www.w3.org/2000/svg">
<path d="M72.4 148C62 148 52.4 146.2 43.6 142.6C34.8 139 27.1333 133.867 20.6 127.2C14.2 120.533 9.2 112.667 5.6 103.6C2.13333 94.4 0.4 84.3333 0.4 73.4C0.4 58.8667 3.46667 46.1333 9.6 35.2C15.7333 24.1333 24.2 15.5333 35 9.39999C45.9333 3.13333 58.3333 -3.8147e-06 72.2 -3.8147e-06C86.3333 -3.8147e-06 98.8 3.13333 109.6 9.39999C120.533 15.5333 129.067 24.1333 135.2 35.2C141.333 46.2667 144.4 59.0667 144.4 73.6C144.4 84.5333 142.6 94.5333 139 103.6C135.533 112.667 130.533 120.533 124 127.2C117.6 133.867 110 139 101.2 142.6C92.4 146.2 82.8 148 72.4 148ZM72.2 126.8C81.2667 126.8 89.2 124.533 96 120C102.933 115.467 108.333 109.2 112.2 101.2C116.067 93.0667 118 83.7333 118 73.2C118 62.8 116.067 53.7333 112.2 46C108.467 38.1333 103.133 32.0667 96.2 27.8C89.4 23.4 81.4 21.2 72.2 21.2C63.1333 21.2 55.1333 23.4 48.2 27.8C41.4 32.0667 36.1333 38.0667 32.4 45.8C28.6667 53.5333 26.8 62.6667 26.8 73.2C26.8 83.8667 28.6667 93.2 32.4 101.2C36.2667 109.2 41.6 115.467 48.4 120C55.3333 124.533 63.2667 126.8 72.2 126.8ZM164.189 146V1.99999H196.389L266.589 127.2L259.189 129V1.99999H284.389V146H252.189L181.989 20.8L189.389 19V146H164.189ZM378.111 148C362.911 148 349.778 145 338.711 139C327.644 132.867 319.111 124.333 313.111 113.4C307.111 102.333 304.111 89.4 304.111 74.6C304.111 59.8 307.111 46.8667 313.111 35.8C319.111 24.6 327.444 15.8667 338.111 9.59999C348.778 3.19999 361.178 -3.8147e-06 375.311 -3.8147e-06C386.778 -3.8147e-06 397.044 2.13333 406.111 6.4C415.311 10.5333 422.711 16.2667 428.311 23.6C434.044 30.8 437.511 39.2 438.711 48.8H412.711C411.378 40.2667 407.378 33.5333 400.711 28.6C394.044 23.6667 385.711 21.2 375.711 21.2C366.644 21.2 358.711 23.3333 351.911 27.6C345.111 31.8667 339.844 37.9333 336.111 45.8C332.378 53.6667 330.511 63.0667 330.511 74C330.511 85.2 332.378 94.8 336.111 102.8C339.978 110.667 345.511 116.667 352.711 120.8C360.044 124.933 368.978 127 379.511 127C387.644 127 394.644 126 400.511 124C406.378 121.867 411.111 118.733 414.711 114.6L439.711 124.4C432.111 132.133 423.311 138 413.311 142C403.311 146 391.578 148 378.111 148ZM413.711 124.4V82.4L419.911 88.6H379.311V68.2H439.711V124.4H413.711ZM449.967 146L502.967 1.99999H525.367L475.567 146H449.967ZM558.567 146L508.967 1.99999H532.567L585.367 146H558.567ZM477.367 89.4H556.167V110.2H477.367V89.4ZM603.447 146V1.99999H629.447V146H603.447ZM622.247 71.2L690.447 1.99999H725.447L654.447 71.2H622.247ZM693.647 146L621.847 71.2H654.447L729.447 146H693.647ZM799.138 148C779.671 148 764.938 142.467 754.938 131.4C744.938 120.333 739.938 104.467 739.938 83.8V1.99999H765.938V87.6C765.938 100.8 768.871 110.667 774.738 117.2C780.604 123.6 788.804 126.8 799.338 126.8C809.871 126.8 818.071 123.6 823.938 117.2C829.804 110.667 832.738 100.867 832.738 87.8V1.99999H858.738V84C858.738 104.533 853.671 120.333 843.538 131.4C833.538 142.467 818.738 148 799.138 148Z" fill="black"/>
</svg>
